<mxfile host="app.diagrams.net" modified="2024-03-05T04:26:16.722Z" agent="Mozilla/5.0 (Windows NT 10.0; Win64; x64) AppleWebKit/537.36 (KHTML, like Gecko) Chrome/122.0.0.0 Safari/537.36" etag="EsiGNZQGnZ6cCFXh9-RT" version="24.0.1" type="github">
  <diagram name="Page-1" id="74e2e168-ea6b-b213-b513-2b3c1d86103e">
    <mxGraphModel dx="2074" dy="1106" grid="1" gridSize="10" guides="1" tooltips="1" connect="1" arrows="1" fold="1" page="1" pageScale="1" pageWidth="1100" pageHeight="850" background="none" math="0" shadow="0">
      <root>
        <mxCell id="0" />
        <mxCell id="1" parent="0" />
        <mxCell id="3ILAFvqH6Bl1qXx8cAew-3" value="" style="endArrow=classic;html=1;rounded=0;" edge="1" parent="1">
          <mxGeometry relative="1" as="geometry">
            <mxPoint x="420" y="190" as="sourcePoint" />
            <mxPoint x="610" y="190" as="targetPoint" />
          </mxGeometry>
        </mxCell>
        <mxCell id="3ILAFvqH6Bl1qXx8cAew-4" value="Label" style="edgeLabel;resizable=0;html=1;;align=center;verticalAlign=middle;" connectable="0" vertex="1" parent="3ILAFvqH6Bl1qXx8cAew-3">
          <mxGeometry relative="1" as="geometry" />
        </mxCell>
        <mxCell id="3ILAFvqH6Bl1qXx8cAew-5" value="Recieves" style="edgeLabel;html=1;align=center;verticalAlign=middle;resizable=0;points=[];" vertex="1" connectable="0" parent="3ILAFvqH6Bl1qXx8cAew-3">
          <mxGeometry x="0.0105" y="-1" relative="1" as="geometry">
            <mxPoint as="offset" />
          </mxGeometry>
        </mxCell>
        <mxCell id="3ILAFvqH6Bl1qXx8cAew-6" value="Artwork sent to graphic designer" style="edgeStyle=orthogonalEdgeStyle;rounded=0;orthogonalLoop=1;jettySize=auto;html=1;exitX=1;exitY=1;exitDx=0;exitDy=0;entryX=0;entryY=1;entryDx=0;entryDy=0;" edge="1" parent="1" source="3ILAFvqH6Bl1qXx8cAew-8" target="3ILAFvqH6Bl1qXx8cAew-10">
          <mxGeometry x="0.1667" y="-10" relative="1" as="geometry">
            <mxPoint as="offset" />
          </mxGeometry>
        </mxCell>
        <mxCell id="3ILAFvqH6Bl1qXx8cAew-7" value="Artwork is sent back to customer for approval" style="edgeStyle=orthogonalEdgeStyle;rounded=0;orthogonalLoop=1;jettySize=auto;html=1;exitX=0;exitY=0.333;exitDx=0;exitDy=0;entryX=1;entryY=0.75;entryDx=0;entryDy=0;exitPerimeter=0;" edge="1" parent="1" source="3ILAFvqH6Bl1qXx8cAew-8" target="3ILAFvqH6Bl1qXx8cAew-9">
          <mxGeometry y="-10" relative="1" as="geometry">
            <mxPoint as="offset" />
          </mxGeometry>
        </mxCell>
        <mxCell id="3ILAFvqH6Bl1qXx8cAew-24" style="edgeStyle=orthogonalEdgeStyle;rounded=0;orthogonalLoop=1;jettySize=auto;html=1;exitX=0.75;exitY=1;exitDx=0;exitDy=0;entryX=0.663;entryY=1.013;entryDx=0;entryDy=0;entryPerimeter=0;" edge="1" parent="1" source="3ILAFvqH6Bl1qXx8cAew-8" target="3ILAFvqH6Bl1qXx8cAew-11">
          <mxGeometry relative="1" as="geometry">
            <mxPoint x="1050" y="370" as="targetPoint" />
            <Array as="points">
              <mxPoint x="570" y="300" />
              <mxPoint x="1051" y="300" />
              <mxPoint x="1051" y="241" />
            </Array>
          </mxGeometry>
        </mxCell>
        <mxCell id="3ILAFvqH6Bl1qXx8cAew-28" style="edgeStyle=orthogonalEdgeStyle;rounded=0;orthogonalLoop=1;jettySize=auto;html=1;exitX=0.25;exitY=1;exitDx=0;exitDy=0;" edge="1" parent="1" target="3ILAFvqH6Bl1qXx8cAew-9">
          <mxGeometry relative="1" as="geometry">
            <mxPoint x="170" y="160" as="targetPoint" />
            <mxPoint x="500" y="200" as="sourcePoint" />
            <Array as="points">
              <mxPoint x="500" y="225" />
              <mxPoint x="170" y="225" />
              <mxPoint x="170" y="140" />
            </Array>
          </mxGeometry>
        </mxCell>
        <mxCell id="3ILAFvqH6Bl1qXx8cAew-32" style="edgeStyle=orthogonalEdgeStyle;rounded=0;orthogonalLoop=1;jettySize=auto;html=1;exitX=0.75;exitY=0;exitDx=0;exitDy=0;" edge="1" parent="1" source="3ILAFvqH6Bl1qXx8cAew-8">
          <mxGeometry relative="1" as="geometry">
            <mxPoint x="1040" y="150" as="targetPoint" />
            <Array as="points">
              <mxPoint x="570" y="86" />
              <mxPoint x="1041" y="86" />
            </Array>
          </mxGeometry>
        </mxCell>
        <mxCell id="3ILAFvqH6Bl1qXx8cAew-37" style="edgeStyle=orthogonalEdgeStyle;rounded=0;orthogonalLoop=1;jettySize=auto;html=1;exitX=0;exitY=1;exitDx=0;exitDy=0;entryX=1;entryY=0.5;entryDx=0;entryDy=0;" edge="1" parent="1" source="3ILAFvqH6Bl1qXx8cAew-8" target="3ILAFvqH6Bl1qXx8cAew-36">
          <mxGeometry relative="1" as="geometry">
            <mxPoint x="480" y="390" as="targetPoint" />
            <Array as="points">
              <mxPoint x="480" y="380" />
              <mxPoint x="481" y="380" />
              <mxPoint x="481" y="375" />
            </Array>
          </mxGeometry>
        </mxCell>
        <mxCell id="3ILAFvqH6Bl1qXx8cAew-8" value="&lt;div&gt;0&lt;/div&gt;&lt;div&gt;&lt;br&gt;&lt;/div&gt;Advantage Specialties Order Processing" style="rounded=1;whiteSpace=wrap;html=1;" vertex="1" parent="1">
          <mxGeometry x="480" y="100" width="120" height="100" as="geometry" />
        </mxCell>
        <mxCell id="3ILAFvqH6Bl1qXx8cAew-17" style="edgeStyle=orthogonalEdgeStyle;rounded=0;orthogonalLoop=1;jettySize=auto;html=1;exitX=1;exitY=0.25;exitDx=0;exitDy=0;entryX=0.25;entryY=0;entryDx=0;entryDy=0;" edge="1" parent="1" source="3ILAFvqH6Bl1qXx8cAew-9" target="3ILAFvqH6Bl1qXx8cAew-8">
          <mxGeometry relative="1" as="geometry">
            <mxPoint x="520" y="100" as="targetPoint" />
          </mxGeometry>
        </mxCell>
        <mxCell id="3ILAFvqH6Bl1qXx8cAew-30" style="edgeStyle=orthogonalEdgeStyle;rounded=0;orthogonalLoop=1;jettySize=auto;html=1;exitX=0;exitY=0.75;exitDx=0;exitDy=0;" edge="1" parent="1" source="3ILAFvqH6Bl1qXx8cAew-9" target="3ILAFvqH6Bl1qXx8cAew-8">
          <mxGeometry relative="1" as="geometry">
            <mxPoint x="510" y="360" as="targetPoint" />
            <mxPoint x="170" y="160" as="sourcePoint" />
            <Array as="points">
              <mxPoint x="150" y="160" />
              <mxPoint x="150" y="275" />
              <mxPoint x="511" y="275" />
            </Array>
          </mxGeometry>
        </mxCell>
        <mxCell id="3ILAFvqH6Bl1qXx8cAew-9" value="Customer" style="whiteSpace=wrap;html=1;aspect=fixed;" vertex="1" parent="1">
          <mxGeometry x="180" y="100" width="80" height="80" as="geometry" />
        </mxCell>
        <mxCell id="3ILAFvqH6Bl1qXx8cAew-10" value="Graphic designer&amp;nbsp;" style="whiteSpace=wrap;html=1;aspect=fixed;" vertex="1" parent="1">
          <mxGeometry x="760" y="160" width="80" height="80" as="geometry" />
        </mxCell>
        <mxCell id="3ILAFvqH6Bl1qXx8cAew-26" style="edgeStyle=orthogonalEdgeStyle;rounded=0;orthogonalLoop=1;jettySize=auto;html=1;exitX=0.75;exitY=1;exitDx=0;exitDy=0;" edge="1" parent="1">
          <mxGeometry relative="1" as="geometry">
            <mxPoint x="530.5" y="200" as="targetPoint" />
            <mxPoint x="1069.5" y="235" as="sourcePoint" />
            <Array as="points">
              <mxPoint x="1069.5" y="330" />
              <mxPoint x="530.5" y="330" />
            </Array>
          </mxGeometry>
        </mxCell>
        <mxCell id="3ILAFvqH6Bl1qXx8cAew-34" style="edgeStyle=orthogonalEdgeStyle;rounded=0;orthogonalLoop=1;jettySize=auto;html=1;exitX=0.75;exitY=0;exitDx=0;exitDy=0;" edge="1" parent="1" source="3ILAFvqH6Bl1qXx8cAew-11">
          <mxGeometry relative="1" as="geometry">
            <mxPoint x="540" y="130" as="targetPoint" />
            <Array as="points">
              <mxPoint x="1060" y="66" />
              <mxPoint x="541" y="66" />
            </Array>
          </mxGeometry>
        </mxCell>
        <mxCell id="3ILAFvqH6Bl1qXx8cAew-11" value="Sage" style="whiteSpace=wrap;html=1;aspect=fixed;" vertex="1" parent="1">
          <mxGeometry x="1000" y="150" width="80" height="80" as="geometry" />
        </mxCell>
        <mxCell id="3ILAFvqH6Bl1qXx8cAew-12" value="Customer places order via email" style="endArrow=classic;html=1;rounded=0;entryX=0;entryY=1;entryDx=0;entryDy=0;" edge="1" parent="1">
          <mxGeometry x="0.2727" y="10" width="50" height="50" relative="1" as="geometry">
            <mxPoint x="250" y="180" as="sourcePoint" />
            <mxPoint x="480" y="190" as="targetPoint" />
            <Array as="points">
              <mxPoint x="250" y="190" />
            </Array>
            <mxPoint as="offset" />
          </mxGeometry>
        </mxCell>
        <mxCell id="3ILAFvqH6Bl1qXx8cAew-14" value="Graphic designer sends artwork" style="endArrow=classic;html=1;rounded=0;" edge="1" parent="1">
          <mxGeometry x="0.0063" y="-10" width="50" height="50" relative="1" as="geometry">
            <mxPoint x="760" y="190" as="sourcePoint" />
            <mxPoint x="601" y="190" as="targetPoint" />
            <mxPoint as="offset" />
          </mxGeometry>
        </mxCell>
        <mxCell id="3ILAFvqH6Bl1qXx8cAew-15" value="Lakeshore" style="whiteSpace=wrap;html=1;aspect=fixed;" vertex="1" parent="1">
          <mxGeometry x="880" y="160" width="80" height="80" as="geometry" />
        </mxCell>
        <mxCell id="3ILAFvqH6Bl1qXx8cAew-19" value="Customer approves design" style="text;html=1;align=center;verticalAlign=middle;resizable=0;points=[];autosize=1;strokeColor=none;fillColor=none;" vertex="1" parent="1">
          <mxGeometry x="290" y="90" width="170" height="30" as="geometry" />
        </mxCell>
        <mxCell id="3ILAFvqH6Bl1qXx8cAew-20" style="edgeStyle=orthogonalEdgeStyle;rounded=0;orthogonalLoop=1;jettySize=auto;html=1;exitX=1;exitY=0;exitDx=0;exitDy=0;entryX=0.613;entryY=0.013;entryDx=0;entryDy=0;entryPerimeter=0;" edge="1" parent="1" source="3ILAFvqH6Bl1qXx8cAew-8" target="3ILAFvqH6Bl1qXx8cAew-15">
          <mxGeometry relative="1" as="geometry" />
        </mxCell>
        <mxCell id="3ILAFvqH6Bl1qXx8cAew-21" value="Employees input&amp;nbsp; order" style="text;html=1;align=center;verticalAlign=middle;resizable=0;points=[];autosize=1;strokeColor=none;fillColor=none;" vertex="1" parent="1">
          <mxGeometry x="715" y="90" width="150" height="30" as="geometry" />
        </mxCell>
        <mxCell id="3ILAFvqH6Bl1qXx8cAew-25" value="Employees request merchandise samples&amp;nbsp;" style="text;html=1;align=center;verticalAlign=middle;resizable=0;points=[];autosize=1;strokeColor=none;fillColor=none;" vertex="1" parent="1">
          <mxGeometry x="675" y="298" width="250" height="30" as="geometry" />
        </mxCell>
        <mxCell id="3ILAFvqH6Bl1qXx8cAew-27" value="merchandise&amp;nbsp; samples sent&amp;nbsp;" style="text;html=1;align=center;verticalAlign=middle;resizable=0;points=[];autosize=1;strokeColor=none;fillColor=none;" vertex="1" parent="1">
          <mxGeometry x="625" y="338" width="170" height="30" as="geometry" />
        </mxCell>
        <mxCell id="3ILAFvqH6Bl1qXx8cAew-29" value="Merchandise samples sent for approval&lt;div&gt;&lt;br&gt;&lt;/div&gt;" style="text;html=1;align=center;verticalAlign=middle;resizable=0;points=[];autosize=1;strokeColor=none;fillColor=none;" vertex="1" parent="1">
          <mxGeometry x="175" y="223" width="230" height="40" as="geometry" />
        </mxCell>
        <mxCell id="3ILAFvqH6Bl1qXx8cAew-31" value="Merchandise approved" style="text;html=1;align=center;verticalAlign=middle;resizable=0;points=[];autosize=1;strokeColor=none;fillColor=none;" vertex="1" parent="1">
          <mxGeometry x="210" y="280" width="150" height="30" as="geometry" />
        </mxCell>
        <mxCell id="3ILAFvqH6Bl1qXx8cAew-33" value="Order request&amp;nbsp;" style="text;html=1;align=center;verticalAlign=middle;resizable=0;points=[];autosize=1;strokeColor=none;fillColor=none;" vertex="1" parent="1">
          <mxGeometry x="750" y="58" width="100" height="30" as="geometry" />
        </mxCell>
        <mxCell id="3ILAFvqH6Bl1qXx8cAew-35" value="Order confirmation" style="text;html=1;align=center;verticalAlign=middle;resizable=0;points=[];autosize=1;strokeColor=none;fillColor=none;" vertex="1" parent="1">
          <mxGeometry x="710" y="28" width="120" height="30" as="geometry" />
        </mxCell>
        <mxCell id="3ILAFvqH6Bl1qXx8cAew-36" value="filing cabinet" style="html=1;dashed=0;whiteSpace=wrap;shape=mxgraph.dfd.dataStoreID;align=left;spacingLeft=3;points=[[0,0],[0.5,0],[1,0],[0,0.5],[1,0.5],[0,1],[0.5,1],[1,1]];" vertex="1" parent="1">
          <mxGeometry x="160" y="360" width="100" height="30" as="geometry" />
        </mxCell>
        <mxCell id="3ILAFvqH6Bl1qXx8cAew-38" value="Orders sent to filing system" style="text;html=1;align=center;verticalAlign=middle;resizable=0;points=[];autosize=1;strokeColor=none;fillColor=none;" vertex="1" parent="1">
          <mxGeometry x="290" y="350" width="170" height="30" as="geometry" />
        </mxCell>
      </root>
    </mxGraphModel>
  </diagram>
</mxfile>
